# xmcd
#
# Track frame offsets:
#	150
#	11817
#	15607
#	29317
#	43975
#	65872
#	79124
#	89400
#	102077
#	123313
#	141063
#	155275
#	169883
#	184842
#
# Disc length: 2720 seconds
#
# Revision: 1
# Processed by: cddbd v1.4PL0 Copyright (c) Steve Scherf et al.
# Submitted via: audiograbber 1.80.04
#
DISCID=b90a9e0e
DTITLE=Björn Thoroddsen - Gunnar Þórðarson - Jón Rafnsson - Guitar Islancio 2
DYEAR=2000
DGENRE=Blues
TTITLE0=Fröken Reykjavík
TTITLE1=Krummi Svaf Í Klettagjá - Forleikur
TTITLE2=Krummi Svaf Í Klettagjá
TTITLE3=Guð Gaf Mér Eyra
TTITLE4=Tango
TTITLE5=Ólafur Liljurós
TTITLE6=Sá Ég Spóa
TTITLE7=Litfríð Og Ljóshærð
TTITLE8=Borgarblús
TTITLE9=Anda Þing, Guð, Mjer Gef Þú Víst
TTITLE10=Bí Bí Og Blaka
TTITLE11=Haldið Áfram
TTITLE12=Veistu Að Þín Ástkæru Augu
TTITLE13=Sof þú, Blíðust Barnkind Mín
EXTD=
EXTT0=
EXTT1=
EXTT2=
EXTT3=
EXTT4=
EXTT5=
EXTT6=
EXTT7=
EXTT8=
EXTT9=
EXTT10=
EXTT11=
EXTT12=
EXTT13=
PLAYORDER=
